<svg xmlns="http://www.w3.org/2000/svg" width="96" height="96" viewBox="0 0 96 96">
  <defs>
    <linearGradient id="g" x1="0" y1="0" x2="96" y2="96">
      <stop offset="0%" stop-color="#00d4ff"/>
      <stop offset="50%" stop-color="#7b61ff"/>
      <stop offset="100%" stop-color="#b366ff"/>
    </linearGradient>
  </defs>
  <rect width="96" height="96" rx="20" fill="url(#g)"/>
  <path d="M48 20c-6 0-11 2-14 6s-6 10-6 16v2c0 6 2 12 6 16s8 6 14 6c4 0 8-1 11-3 2-1 4-1 5 1s1 4-1 5c-4 3-10 4-15 4-8 0-15-3-20-8s-8-13-8-22v-2c0-9 3-16 8-22s12-8 20-8c6 0 12 2 16 5 2 1 2 4 1 5s-3 2-5 1c-3-2-7-4-12-4z" fill="white"/>
  <path d="M48 56c-3 0-6-1-8-4s-4-6-4-10v-1c0-4 1-7 4-10s5-4 8-4c2 0 4 1 6 2 2 1 2 3 1 5s-3 2-5 1c-1-1-2-1-2-1s-2 1-3 2-1 3-1 5v1c0 2 1 4 2 5s2 2 3 2 2-1 3-2 1-3 1-5v-1c0-2 1-3 3-3s3 1 3 3v1c0 4-1 7-4 10s-5 4-8 4z" fill="white"/>
</svg>
